<?xml version="1.0" encoding="UTF-8" standalone="no"?>
<!-- Created with Inkscape (http://www.inkscape.org/) -->

<svg
   width="67.73333mm"
   height="67.733337mm"
   viewBox="0 0 67.73333 67.733337"
   version="1.1"
   id="svg1"
   xml:space="preserve"
   inkscape:version="1.3.2 (091e20e, 2023-11-25, custom)"
   sodipodi:docname="both-logos.svg"
   xmlns:inkscape="http://www.inkscape.org/namespaces/inkscape"
   xmlns:sodipodi="http://sodipodi.sourceforge.net/DTD/sodipodi-0.dtd"
   xmlns="http://www.w3.org/2000/svg"
   xmlns:svg="http://www.w3.org/2000/svg"><sodipodi:namedview
     id="namedview1"
     pagecolor="#ffffff"
     bordercolor="#000000"
     borderopacity="0.25"
     inkscape:showpageshadow="2"
     inkscape:pageopacity="0.0"
     inkscape:pagecheckerboard="0"
     inkscape:deskcolor="#d1d1d1"
     inkscape:document-units="mm"
     inkscape:export-bgcolor="#ffffffff"
     inkscape:zoom="0.53362095"
     inkscape:cx="-510.66211"
     inkscape:cy="-280.16141"
     inkscape:window-width="1920"
     inkscape:window-height="1017"
     inkscape:window-x="1432"
     inkscape:window-y="-8"
     inkscape:window-maximized="1"
     inkscape:current-layer="g3"
     showgrid="false" /><defs
     id="defs1" /><g
     inkscape:label="Calque 1"
     inkscape:groupmode="layer"
     id="layer1"
     transform="translate(100.8687,203.30522)"><g
       inkscape:label="Calque 1"
       id="layer1-3"
       transform="translate(-748.22376,202.61691)"><g
         id="g3"
         transform="translate(-148.79982,135.94858)"><g
           id="g4"
           transform="matrix(0.80000002,0,0,0.80000002,168.89956,-105.05209)"
           inkscape:export-filename="logo-256.png"
           inkscape:export-xdpi="96"
           inkscape:export-ydpi="96"><g
             id="g2"
             transform="translate(76.853084,-27.890232)"><g
               id="g1"
               transform="matrix(1.2926964,0,0,1.2926964,-275.43639,171.39459)"><g
                 id="g6"><rect
                   style="fill:#f4c810;fill-opacity:1;stroke-width:0.181805;stroke-dasharray:none"
                   id="rect1"
                   width="65.49617"
                   height="65.49617"
                   x="760.15717"
                   y="-533.40259"
                   rx="15.867701"
                   ry="19.187618" /><path
                   id="path6"
                   style="fill:#000000;stroke-width:0.212561"
                   d="m 796.46255,-487.74328 -0.78483,-0.1785 c -0.0712,-0.0117 0.33048,-0.19436 0.43924,-0.28733 l 0.19787,-0.16889 -0.819,0.40075 c 0,0 -0.7514,-0.16345 -0.0695,-0.46621 0.50331,-0.4589 0.85389,-0.57397 0.85698,-0.62163 l 0.004,-0.0465 -0.18389,0.11093 c -0.10099,0.061 -0.52694,0.28553 -0.94642,0.4987 -0.4195,0.21317 -1.73153,1.01161 -1.41215,0.75404 l 2.21016,-1.78241 0.0729,-0.0875 -0.59064,0.29583 c -0.32491,0.1626 -0.87045,0.4514 -1.21227,0.6421 -0.29012,0.15992 -2.01977,0.91545 -2.01977,0.91545 0.36383,-0.20331 1.92174,-1.213 2.52847,-1.639 0.67159,-0.47152 0.77086,-0.54914 0.74154,-0.57815 -0.0288,-0.0285 -1.35937,0.64643 -1.61751,0.8205 -0.0777,0.0524 -0.46192,0.27697 -0.85398,0.4992 -0.66935,0.37943 -1.27794,0.65642 -1.32969,0.60513 -0.0126,-0.0125 0.3398,-0.25797 0.78352,-0.54567 0.90124,-0.58436 2.2607,-1.50604 2.3041,-1.56205 0.0156,-0.02 0.0911,-0.0788 0.1679,-0.13092 l 0.13991,-0.0949 h -0.0615 c -0.12672,0 -2.37524,1.22012 -2.7968,1.51757 -0.0874,0.0617 -0.32771,0.18778 -0.53368,0.28033 l -0.37427,0.1684 -0.0325,-0.0325 -0.033,-0.032 0.053,-0.0485 c 0.029,-0.0264 0.52297,-0.35777 1.09783,-0.73655 1.02267,-0.67384 1.88473,-1.29333 1.95381,-1.40415 0.0735,-0.11778 -1.12577,0.52533 -2.2926,1.22925 -0.23306,0.1406 -0.58904,0.34271 -0.79102,0.44924 -0.20198,0.1065 -0.37479,0.19891 -0.38377,0.20587 -0.009,0.007 -0.12555,0.2736 -0.25884,0.59314 l -0.20638,0.10793 0.3368,-0.6656 0.18539,-0.17539 c 0.10203,-0.0967 0.4398,-0.34414 0.75054,-0.54966 0.60528,-0.40033 1.79135,-1.257 1.9773,-1.42814 l 0.11293,-0.10393 -0.1694,0.0745 c -0.23444,0.1029 -0.87787,0.45353 -1.77992,0.97041 -0.41949,0.24037 -0.91433,0.51979 -1.09983,0.62062 l -0.33729,0.18289 -0.31481,0.69009 -0.31531,0.68957 -0.0844,-0.23935 0.56815,-1.11732 0.24685,-0.20088 c 0.13588,-0.11033 0.52393,-0.3821 0.86247,-0.60413 0.33854,-0.22203 0.77082,-0.53184 0.96042,-0.68859 0.18961,-0.15674 0.4546,-0.36714 0.58914,-0.46721 l 0.24486,-0.18189 h -0.0665 c -0.0793,0 -0.94098,0.46716 -1.53457,0.83199 -0.23235,0.14282 -0.69041,0.39831 -1.01738,0.56766 l -0.59414,0.30782 -0.42374,0.84948 c -0.40604,0.81395 -0.57477,1.07705 -0.69108,1.07984 z m -5.29658,-0.26445 0.022,0.066 0.0225,0.066 -0.19189,0.11844 z m -4.72363,0.3713 -0.87547,0.009 z"
                   sodipodi:nodetypes="cccccccccsscccccscsssssscsscccccscsscccccssccscccccccssccssccscccccccccccc" /><g
                   id="g5"
                   transform="translate(-110.62213,2.6235218)"><path
                     id="path39297-5"
                     style="fill:#000000;stroke-width:0.274777"
                     d="m 898.79244,-493.65062 -0.0801,0.22802 c -0.044,0.12535 -0.0801,0.28256 -0.0801,0.34946 0,0.0669 -0.0769,0.27227 -0.17117,0.45669 l -0.17183,0.3359 0.0801,-0.0446 0.33654,-0.0588 0.11369,-0.21574 0.11304,-0.21511 0.0859,-0.74091 -0.0368,-0.095 h -0.0943 z" /><path
                     id="path19"
                     style="fill:#000000;stroke-width:0.274777"
                     d="m 914.27212,-495.91276 -0.82683,0.26936 c -0.84022,0.27324 -1.37459,0.52063 -1.37459,0.63627 v 0.0639 l 0.16407,-0.0504 c 0.0904,-0.0275 0.61714,-0.21433 1.17047,-0.41535 l 1.00576,-0.36561 -0.0691,-0.0691 z" /><path
                     id="path18"
                     style="fill:#000000;stroke-width:0.274777"
                     d="m 895.30816,-498.28729 -0.25257,0.12919 -0.25321,0.12919 -0.14405,0.24676 -0.14405,0.24675 -0.0323,1.01027 -0.0329,1.01028 0.0866,0.3824 0.0865,0.38241 0.22738,0.34042 0.22738,0.34042 0.35979,0.28163 c 0.1978,0.15493 0.38983,0.28164 0.42633,0.28164 h 0.0665 v -0.10594 c 0,-0.0582 -0.1791,-0.36627 -0.39791,-0.68471 l -0.39791,-0.57878 -0.0485,-0.25644 -0.0484,-0.2558 -0.0833,-10e-4 -0.0833,-6.5e-4 0.073,-0.0536 0.0736,-0.053 0.008,-0.5904 0.008,-0.59105 0.13888,-0.23384 c 0.0761,-0.12868 0.19099,-0.26707 0.25579,-0.30747 l 0.11821,-0.073 0.12274,0.0465 0.12337,0.0465 -0.18668,0.31523 c -0.17072,0.28869 -0.24182,0.55552 -0.14792,0.55552 0.021,0 0.20828,-0.11595 0.41535,-0.25709 l 0.37594,-0.25644 0.14405,0.0213 0.14405,0.0213 0.0788,0.12532 0.0794,0.12531 -0.33719,0.34494 c -0.39318,0.40257 -0.46551,0.52924 -0.53291,0.93276 l -0.0497,0.29843 0.32814,0.5032 c 0.18072,0.27683 0.37619,0.54216 0.43409,0.58976 0.0579,0.0476 0.28217,0.1831 0.49803,0.30101 l 0.39145,0.21446 0.14469,0.001 c 0.0796,7.3e-4 0.31802,-0.0701 0.52968,-0.15696 l 0.38499,-0.15762 v -0.12467 -0.12402 l -0.4386,-0.37659 -0.43796,-0.37595 v -0.17699 -0.17699 l 0.18281,-0.33977 0.18216,-0.33978 v -0.26096 -0.26032 l -0.21898,-0.43473 -0.21963,-0.43538 -0.4231,-0.39984 -0.42245,-0.3992 -0.29456,-0.14922 -0.29455,-0.14857 -0.39598,-0.0439 z" /><path
                     id="path17"
                     style="fill:#000000;stroke-width:0.274777"
                     d="m 902.92591,-499.29563 c 0.0247,0 -0.0847,0.1324 -0.24353,0.29391 l -0.28874,0.29327 -0.69375,0.42245 c -0.38159,0.23231 -0.86531,0.50734 -1.07487,0.61107 -0.20955,0.10373 -0.40711,0.18769 -0.43861,0.18669 -0.11717,-0.004 0.47804,-0.43847 1.206,-0.88044 0.41352,-0.25106 0.91753,-0.56245 1.12009,-0.69182 0.20255,-0.12935 0.38871,-0.23513 0.41341,-0.23513 z" /><path
                     id="path16"
                     style="fill:#000000;stroke-width:0.274777"
                     d="m 910.2743,-499.32922 -0.7267,0.34559 -0.72735,0.34623 -0.82165,0.55294 c -0.73497,0.49488 -0.93661,0.67132 -0.76675,0.6705 0.0301,-1.5e-4 0.31814,-0.1002 0.63949,-0.22221 0.32135,-0.12201 0.67437,-0.24992 0.78484,-0.28422 l 0.20089,-0.062 0.38758,-0.0271 0.20541,-0.0368 0.8869,-0.0614 0.56715,-0.0433 0.3824,0.0943 0.38241,0.095 -0.54648,0.0562 c -0.72865,0.0757 -1.22409,0.22173 -1.99148,0.58523 l -0.63885,0.30231 v 0.084 c 0,0.0461 0.0501,0.1031 0.11175,0.1266 l 0.11239,0.0426 0.67309,-0.0394 c 0.37011,-0.0218 0.80438,-0.0697 0.96506,-0.10593 0.16067,-0.0362 0.44805,-0.0668 0.63885,-0.0678 l 0.34687,-0.002 v 0.10013 0.10012 l -0.14598,0.0381 c -0.0804,0.0208 -0.14599,0.0681 -0.14599,0.10529 v 0.0678 l 0.31006,0.0917 c 0.37278,0.11023 0.7122,0.27726 0.7112,0.34946 -4.9e-4,0.0288 -0.11506,0.12585 -0.25515,0.21575 l -0.25516,0.16343 v 0.0807 0.0814 l 0.45669,-0.0504 0.45605,-0.0504 0.4386,-0.18281 c 0.24101,-0.10022 0.61085,-0.25238 0.82166,-0.33848 l 0.38305,-0.15632 v -0.082 c 8e-5,-0.0452 -0.0818,-0.13569 -0.18216,-0.20089 l -0.18281,-0.11821 v -0.1434 -0.14276 h 0.17183 c 0.0944,0 0.27529,-0.0358 0.40178,-0.0794 l 0.22996,-0.0795 0.073,-0.56521 v -0.0995 c 0,-0.0548 0.0496,-0.2169 0.10981,-0.3598 l 0.10916,-0.25967 v -0.21963 -0.21898 l -0.0911,6.5e-4 c -0.0502,5.8e-4 -0.23912,0.0526 -0.41988,0.11563 l -0.32879,0.11498 -0.4625,-0.0459 -0.46186,-0.0459 -0.45088,-0.16924 c -0.24787,-0.093 -0.615,-0.20657 -0.81584,-0.25257 l -0.36496,-0.0833 -0.58782,-0.0155 z" /><path
                     id="path15"
                     style="fill:#000000;stroke-width:0.274777"
                     d="m 910.56304,-500.30849 -0.37853,0.11111 -0.37788,0.1111 -0.13695,0.0646 -0.33266,0.1602 -0.33267,0.16019 0.084,0.0517 0.084,0.051 0.0982,-0.0375 0.23965,-0.0879 0.22092,-0.11368 0.51935,-0.10142 0.16149,-0.0523 0.16149,-0.0523 0.56133,0.0155 c 0.30884,0.008 0.63778,0.0324 0.73058,0.0536 0.0928,0.0212 0.37861,0.0522 0.63562,0.0685 l 0.46767,0.0297 -0.71572,-0.28616 -0.58394,-0.14405 -0.55294,-10e-4 z" /><path
                     id="path14"
                     style="fill:#000000;stroke-width:0.274777"
                     d="m 905.19192,-500.52617 -0.0904,0.38628 c -0.0498,0.21227 -0.16411,0.53718 -0.25451,0.72218 l -0.16472,0.33654 -0.32685,0.36044 -0.3275,0.36109 -0.43279,0.26032 v 6.5e-4 c -0.23815,0.14335 -0.47964,0.32576 -0.53614,0.40566 l -0.10271,0.14534 -0.042,-0.0672 c -0.0231,-0.037 -0.0272,-0.14377 -0.009,-0.23707 l 0.0329,-0.16924 0.12919,-0.0672 c 0.0711,-0.0369 0.37717,-0.31541 0.67955,-0.61882 l 0.54971,-0.55165 0.36302,-0.63174 0.36303,-0.6311 0.0846,-0.002 z" /><path
                     id="path13"
                     style="fill:#000000;stroke-width:0.274777"
                     d="m 909.80081,-501.21282 0.97087,0.001 0.97023,6.4e-4 0.51095,0.0956 c 0.65098,0.1216 1.69695,0.42705 1.74925,0.51095 l 0.04,0.064 -0.31006,-0.0375 c -0.17073,-0.0208 -0.59004,-0.10656 -0.93147,-0.19056 l -0.62076,-0.15244 -1.38752,-0.005 -1.38751,-0.004 -0.22931,-0.0556 -0.22996,-0.0555 -1.04451,0.33783 c -0.57448,0.18604 -1.19414,0.40654 -1.37718,0.48964 v 6.4e-4 c -0.18303,0.0831 -0.36152,0.16482 -0.39661,0.18152 l -0.0639,0.0303 0.0329,-0.0995 c 0.0431,-0.12894 0.21172,-0.21109 1.22667,-0.59816 l 0.84039,-0.32039 0.42762,-0.0782 0.42827,-0.0782 0.32814,0.082 0.3275,0.0814 0.0633,-0.10076 z" /><path
                     id="path12"
                     style="fill:#000000;stroke-width:0.274777"
                     d="m 905.09567,-506.29197 2.92166,0.0207 c 1.60675,0.0115 3.10186,0.0374 3.32279,0.0575 0.22092,0.0201 0.74677,0.0548 1.16854,0.0769 1.45907,0.0765 2.02915,0.11128 2.41975,0.14728 0.5053,0.0465 2.0746,0.29997 2.71495,0.4386 l 0.49738,0.10723 0.0672,-0.0413 0.343,0.0297 c 0.15146,0.0391 0.5217,0.10987 0.82295,0.15697 0.68653,0.10738 2.58916,0.51983 3.5056,0.75964 0.95804,0.25068 2.47663,0.78581 3.17681,1.11944 0.32135,0.15313 0.79827,0.42113 1.05937,0.59557 l 0.47477,0.31717 0.20994,0.4063 0.20994,0.40696 -0.0517,0.20347 -0.0517,0.20412 -0.0975,-0.14469 c -0.0538,-0.0795 -0.2024,-0.29114 -0.33008,-0.47026 l -0.23254,-0.32556 -0.35011,-0.239 c -0.44572,-0.30415 -1.54351,-0.77925 -2.66586,-1.15303 l -0.87656,-0.29197 -1.27835,-0.29456 c -0.70296,-0.16232 -1.75461,-0.37717 -2.33706,-0.47736 -0.58244,-0.10019 -1.45327,-0.25076 -1.93529,-0.33396 -1.54959,-0.26745 -2.89901,-0.39513 -5.98865,-0.5665 l -0.94955,-0.0523 -3.72458,0.009 c -2.0486,0.005 -4.10302,0.0309 -4.56497,0.0581 -1.05763,0.0622 -4.09734,0.36418 -4.5275,0.44958 -0.10042,0.0199 -0.28127,0.0488 -0.40178,0.0646 -0.42564,0.0559 -2.34055,0.32926 -2.55669,0.36496 -0.12051,0.0199 -0.30072,0.0484 -0.40114,0.0627 -1.75706,0.25031 -4.21852,0.78551 -5.51452,1.19954 -0.36152,0.11549 -1.18277,0.37765 -1.82547,0.58265 -0.6427,0.205 -1.26765,0.41582 -1.38816,0.46832 -0.12051,0.0525 -0.43266,0.18765 -0.69376,0.30037 -0.90179,0.38933 -2.59448,1.24167 -3.25368,1.63814 -1.20726,0.72611 -2.15354,1.50414 -2.59803,2.13617 l -0.21639,0.30748 -0.13501,0.52516 -0.13565,0.52516 -0.053,-0.27518 -0.053,-0.27582 0.0433,-0.26096 c 0.0235,-0.14372 0.12766,-0.4342 0.2319,-0.64531 l 0.18991,-0.3837 0.56134,-0.55423 0.56198,-0.55423 1.05484,-0.68859 1.05485,-0.68794 1.09942,-0.52516 c 1.70299,-0.81314 2.99123,-1.32341 4.82464,-1.91203 1.39538,-0.44801 2.74988,-0.82328 3.54177,-0.98121 0.34144,-0.0681 0.67038,-0.14158 0.73058,-0.16278 0.0603,-0.0211 0.15877,-0.0434 0.21897,-0.0484 0.0602,-0.005 0.23307,-0.0367 0.3837,-0.0698 l 0.27389,-0.0601 0.16213,0.003 0.33913,-0.0962 c 0.18628,-0.053 0.71628,-0.15015 1.17822,-0.21575 0.46194,-0.0656 1.00451,-0.15076 1.20535,-0.18926 0.20085,-0.0385 0.46344,-0.0851 0.58395,-0.10336 1.20623,-0.18294 1.74059,-0.25636 2.08127,-0.28486 0.22092,-0.0185 0.51699,-0.0477 0.65758,-0.0652 0.47643,-0.0593 1.27461,-0.11885 2.15426,-0.16085 0.48203,-0.023 1.3863,-0.0668 2.00892,-0.0969 z m 9.78687,3.30277 0.38047,0.2151 c 0.20945,0.11824 0.61701,0.29657 0.90563,0.39597 l 0.52516,0.18087 -0.24869,-0.25838 -0.24805,-0.25838 0.23707,0.11885 c 0.13041,0.0653 0.50821,0.21844 0.83974,0.34042 l 0.60268,0.22156 0.51224,0.005 c 0.28174,0.002 0.59386,-0.0168 0.69376,-0.042 l 0.18151,-0.0459 -0.29197,0.14081 -0.29197,0.14147 -0.29198,0.0355 c -0.16068,0.0196 -0.45674,0.0502 -0.65758,0.0678 l -0.36496,0.0316 -0.3766,-0.0975 c -0.20709,-0.0537 -0.62085,-0.21556 -0.91919,-0.35979 l -0.5426,-0.26226 -0.32233,-0.28551 z m -1.68142,0.50643 c -0.0251,-0.0403 0.0978,0.0174 0.27389,0.1279 0.55683,0.3493 3.93785,1.72264 4.7594,1.93334 0.23705,0.0608 0.44826,0.12743 0.46896,0.14793 0.0733,0.0727 -0.7599,0.0243 -1.19179,-0.0691 -0.6869,-0.14849 -1.51964,-0.49588 -2.62904,-1.09619 -1.03242,-0.55866 -1.59762,-0.90951 -1.68142,-1.04386 z m -9.13381,0.97991 -0.17763,0.25322 c -0.0977,0.13931 -0.32886,0.39965 -0.51418,0.57877 l -0.33719,0.32621 -0.65113,0.35528 c -0.35805,0.19546 -0.96327,0.55159 -1.34488,0.79194 -0.3816,0.24034 -0.87461,0.51143 -1.09554,0.60203 -0.22092,0.0906 -0.44478,0.16565 -0.49738,0.16665 l -0.0956,0.002 0.0388,-0.0627 c 0.0213,-0.0342 0.39324,-0.26736 0.82618,-0.51805 0.43294,-0.2507 1.23086,-0.71607 1.77315,-1.03418 l 0.98573,-0.57813 0.40178,-0.33331 c 0.22092,-0.1835 0.46649,-0.38253 0.54519,-0.44183 z m -3.70649,0.85654 c 0.0325,0.0322 -0.71221,0.56852 -1.14399,0.82359 -0.14059,0.0831 -0.48104,0.21946 -0.75641,0.30296 -0.56385,0.171 -0.61616,0.17942 -0.51806,0.0846 0.0765,-0.074 1.38881,-0.72864 1.46051,-0.72864 0.0247,0 0.24302,-0.11548 0.48576,-0.25645 0.24276,-0.14095 0.45519,-0.24288 0.47219,-0.22608 z" /><path
                     id="path11"
                     style="fill:#000000;stroke-width:0.274777"
                     d="m 891.62686,-506.33396 0.0459,0.0452 0.0459,0.0459 h -0.0962 c -0.14021,0 -1.98958,0.79366 -2.1252,0.91209 -0.0634,0.0554 -0.13707,0.10077 -0.16407,0.10077 h -0.0491 v -0.23771 -0.23836 l 1.17176,-0.31393 z" /><path
                     id="path10"
                     style="fill:#000000;stroke-width:0.274777"
                     d="m 891.30259,-507.95789 c 0.0199,0.0197 -0.0896,0.0758 -0.24288,0.12467 -0.15333,0.0489 -0.62039,0.24795 -1.03805,0.44183 -0.41764,0.19387 -0.78746,0.35205 -0.82166,0.35205 h -0.062 v -0.21704 -0.21704 h 0.1195 c 0.0657,0 0.54427,-0.11721 1.06389,-0.26032 0.51962,-0.14311 0.96131,-0.24385 0.98121,-0.22415 z m 17.66429,0.25644 1.02191,0.11498 c 1.22791,0.13845 2.20035,0.31187 2.43912,0.43538 l 0.17506,0.0911 -0.20025,0.0497 -0.20089,0.0497 -0.30295,-0.10723 c -0.16667,-0.059 -0.47453,-0.12055 -0.68407,-0.13695 l -0.38111,-0.0297 -0.5523,0.0329 -0.93146,0.009 -1.00446,-0.0336 -1.93529,-0.0316 -0.74866,0.0187 c -0.41173,0.0103 -0.74865,0.035 -0.74866,0.0549 -2e-5,0.0311 -1.69694,0.0396 -2.06318,0.0103 l -0.12726,-0.0103 v -0.0633 -0.0633 l 0.31006,-0.053 c 0.17071,-0.0292 0.63894,-0.0644 1.04064,-0.0782 0.40168,-0.0138 0.8786,-0.0469 1.05936,-0.0736 0.46508,-0.0687 0.65699,-0.0799 2.33707,-0.1363 z m -17.13461,0.4877 c 0.0158,0.0144 -0.0337,0.0481 -0.10981,0.0743 -0.076,0.0262 -0.51603,0.1915 -0.97798,0.36754 -0.46194,0.17606 -0.98162,0.40218 -1.15496,0.50256 l -0.31523,0.1828 0.0232,-0.26807 0.0226,-0.26807 1.24153,-0.30877 c 0.68287,-0.16974 1.25489,-0.29678 1.27059,-0.28228 z" /><path
                     id="path9"
                     style="fill:#000000;stroke-width:0.274777"
                     d="m 891.2929,-509.73039 -0.073,0.0672 c -0.0402,0.0369 -0.45144,0.22173 -0.91338,0.41083 -0.46193,0.1891 -0.91066,0.38793 -0.99736,0.44183 l -0.15761,0.0982 -0.0407,-0.10593 -0.0413,-0.10594 0.0407,-0.10464 0.0407,-0.10465 0.41341,-0.084 c 0.22749,-0.0464 0.611,-0.15731 0.85202,-0.24611 0.24101,-0.0888 0.53707,-0.18491 0.65758,-0.21381 z m -0.32944,0.93599 -6.4e-4,0.062 -10e-4,0.062 -0.83845,0.31717 -0.91208,0.44248 h -0.073 v -0.16343 -0.16343 l 0.14276,-0.0885 c 0.0786,-0.0487 0.43166,-0.15167 0.78483,-0.22867 0.35317,-0.077 0.69968,-0.16251 0.76998,-0.18991 z" /><path
                     id="path8"
                     style="fill:#000000;stroke-width:0.274777"
                     d="m 890.89112,-511.2458 0.29197,0.0142 v 0.0639 h -0.11498 c -0.0632,0 -0.49863,0.18212 -0.96764,0.40437 -0.46901,0.22225 -0.91026,0.45555 -0.98056,0.51805 l -0.1279,0.11369 v -0.18733 -0.18668 l 0.10141,-0.10077 0.10142,-0.10077 0.84814,-0.26936 z m 0.1828,0.88237 -0.10981,0.0413 c -0.0603,0.023 -0.25516,0.10649 -0.43344,0.18539 -0.17829,0.0789 -0.45427,0.18867 -0.61301,0.24417 -0.15874,0.0555 -0.39486,0.16607 -0.52452,0.24547 -0.12965,0.0794 -0.25278,0.14405 -0.27388,0.14405 -0.0211,0 -0.0595,-0.0546 -0.0853,-0.12144 l -0.0472,-0.12144 0.10012,-0.0988 0.10012,-0.0995 0.61495,-0.16666 c 0.33802,-0.0915 0.76234,-0.18539 0.9431,-0.20929 z" /><path
                     id="path4"
                     style="fill:#000000;stroke-width:0.274777"
                     d="m 907.10451,-516.35859 c -0.68552,-0.047 -4.00588,-0.0463 -4.41898,6.4e-4 -0.18076,0.0205 -1.01875,0.0676 -1.86229,0.10465 -0.84354,0.037 -1.59919,0.0824 -1.67949,0.10141 -0.20951,0.0494 -1.87124,0.40372 -2.04509,0.43602 -0.30645,0.0569 -1.72366,0.48599 -2.77503,0.83974 l -1.09554,0.3682 -1.26413,0.60914 c -1.97885,0.95349 -2.83627,1.50647 -3.3454,2.15749 l -0.23578,0.30166 -0.082,0.45152 -0.082,0.45152 0.0381,1.10459 c 0.0208,0.60748 0.0711,1.69101 0.1124,2.40747 0.0413,0.71648 0.0883,1.5508 0.104,1.85389 l 0.0284,0.551 -0.3753,0.11175 c -0.49139,0.14675 -1.96476,0.68992 -2.74983,1.01351 -2.57287,1.06047 -4.28742,2.01069 -5.58816,3.09671 -0.84168,0.70273 -1.36549,1.3446 -1.59228,1.95143 l -0.12274,0.32815 v 0.37465 0.3753 l 0.11692,0.34623 c 0.0644,0.19046 0.19592,0.45032 0.29262,0.57749 l 0.1757,0.23125 0.67502,0.4147 0.67503,0.4147 0.76868,0.30683 c 0.85696,0.34215 1.18605,0.43427 2.66392,0.74608 1.01786,0.21474 1.27952,0.25095 2.73885,0.37789 l 0.76611,0.0665 1.18145,-0.0194 1.18145,-0.02 0.21188,-0.15568 0.21251,-0.15567 0.0833,0.69892 0.0827,0.69828 0.18668,0.68729 c 0.10259,0.37813 0.25394,0.98084 0.33654,1.33907 l 0.15051,0.65112 9.02852,-0.11046 0.0859,-0.1027 c 0.048,-0.0573 0.3174,-0.56987 0.5988,-1.13947 l 0.51159,-1.03547 0.15826,-0.17117 c 0.0872,-0.0942 0.52062,-0.40663 0.96248,-0.69441 0.72635,-0.47307 2.60824,-1.91508 2.70784,-2.0748 0.0725,-0.11625 -1.35423,0.6534 -2.15038,1.16013 -0.79743,0.50754 -1.82617,1.05365 -1.88167,0.99865 -0.0172,-0.017 0.30603,-0.25215 0.71895,-0.52258 0.64076,-0.41964 1.99416,-1.44632 2.30864,-1.75118 0.0532,-0.0516 0.24212,-0.19275 0.41987,-0.31394 0.17775,-0.12118 0.32298,-0.23324 0.32298,-0.24934 0,-0.0951 -1.19253,0.553 -2.56638,1.39462 -1.07977,0.66147 -1.95227,1.135 -2.00117,1.0865 -0.0138,-0.0137 0.62225,-0.45576 1.41335,-0.9825 l 1.4379,-0.95795 0.34881,-0.39339 c 0.19165,-0.21661 0.4952,-0.49861 0.67503,-0.62658 0.17985,-0.12799 0.31482,-0.24532 0.29972,-0.26032 -0.029,-0.0287 -0.59829,0.3078 -1.41852,0.83845 -0.26895,0.17398 -0.63702,0.39891 -0.81778,0.49933 -0.70421,0.39118 -1.96493,1.19175 -2.08708,1.3255 -0.0707,0.0774 -0.13411,0.19703 -0.14211,0.26613 -0.008,0.0691 -0.0552,0.28055 -0.10594,0.46961 l -0.0924,0.34365 h -0.0724 -0.0723 l 0.0433,0.17182 0.0439,0.17118 -0.21704,0.2965 c -0.11915,0.16299 -0.30295,0.35236 -0.40889,0.42116 l -0.19314,0.12531 -0.54002,-0.002 -0.54002,-0.002 -0.60138,-0.29973 -0.60203,-0.29972 -0.29197,-0.25644 c -0.16068,-0.14109 -0.51654,-0.47524 -0.7913,-0.74285 l -0.49997,-0.48641 -0.18668,-0.36238 c -0.10284,-0.19902 -0.23215,-0.52445 -0.28745,-0.72347 l -0.10077,-0.36173 -0.0433,-0.81197 -0.0426,-0.81196 0.12854,-0.5271 0.12919,-0.52646 0.3359,-0.33654 0.33654,-0.3359 0.32815,-0.0917 0.32879,-0.0911 0.42439,0.008 0.4244,0.008 0.40113,0.18151 c 0.22061,0.10008 0.48981,0.24918 0.59816,0.33138 0.10835,0.0822 0.37951,0.40083 0.60268,0.70796 l 0.40566,0.55875 0.27001,0.12726 c 0.14838,0.07 0.26936,0.15353 0.26936,0.18603 0,0.0325 -0.11456,0.2194 -0.25515,0.41535 -0.14059,0.19595 -0.2558,0.39296 -0.2558,0.43796 0,0.045 0.0484,0.12228 0.10787,0.17118 l 0.10852,0.0885 0.32427,-0.18862 c 0.31828,-0.18485 0.55506,-0.24219 0.55423,-0.13435 -2e-4,0.0299 -0.0349,0.17705 -0.0769,0.32685 l -0.0762,0.27259 0.0407,0.0652 0.0413,0.0652 0.25773,-0.0704 0.25709,-0.0704 0.94697,-0.5749 c 0.52055,-0.31616 0.98765,-0.57367 1.03805,-0.57167 l 0.0917,0.003 -0.26678,0.23254 c -0.14654,0.12771 -0.5703,0.41089 -0.9418,0.62981 l -0.67567,0.39855 -0.3908,0.35076 -0.39081,0.35075 v 0.10142 0.10141 l 0.0911,-0.002 c 0.15977,-0.003 0.71914,-0.28076 1.06841,-0.53097 0.18571,-0.13304 0.66104,-0.43157 1.05614,-0.6634 l 0.7183,-0.42116 0.37143,-0.33138 c 0.36281,-0.32321 0.78419,-0.83626 0.78419,-0.95472 v -0.0594 l -0.1279,0.0478 -0.12726,0.0471 0.0853,-0.104 c 0.0471,-0.0572 0.1927,-0.16579 0.32298,-0.24159 l 0.23642,-0.13823 -0.053,0.13823 -0.053,0.13759 0.24159,-0.22221 c 0.133,-0.1222 0.32618,-0.27374 0.42891,-0.33654 0.10273,-0.0628 0.45179,-0.3614 0.77644,-0.66404 0.32466,-0.30263 0.60954,-0.55035 0.63304,-0.55035 0.0235,0 0.0112,0.0836 -0.0278,0.18538 l -0.0711,0.18475 0.0626,0.24481 0.0594,-0.0756 c 0.0328,-0.0418 0.25701,-0.18455 0.49803,-0.31652 0.47712,-0.26126 0.69376,-0.52775 0.69376,-0.52775 l 0.73057,-0.40501 c 0.30127,-0.12053 0.64945,-0.27051 0.77386,-0.33331 0.12439,-0.0628 0.39775,-0.14654 0.60784,-0.18604 0.21011,-0.0395 0.41012,-0.0888 0.44442,-0.10981 l 0.0627,-0.0381 0.0459,0.073 0.0459,0.0736 h -0.082 c -0.0451,0 -0.26169,0.0814 -0.48124,0.18087 -0.21954,0.0995 -0.4168,0.18087 -0.4386,0.18087 -0.0218,0 -0.41125,0.18054 -0.86558,0.40113 l -0.82618,0.40114 -0.13242,0.1447 -0.13242,0.14534 0.12919,0.18732 -0.0129,0.0846 0.33977,-0.18732 c 0.40135,-0.22143 0.7277,-0.40254 0.96829,-0.53679 0.0959,-0.0535 0.19423,-0.12382 0.21833,-0.15632 0.0241,-0.0325 0.0898,-0.0673 0.14599,-0.0775 0.0562,-0.0102 0.23087,-0.074 0.38822,-0.14146 0.37309,-0.16003 1.39692,-0.46751 1.72276,-0.51741 0.14059,-0.0215 0.43602,-0.0505 0.65694,-0.0646 l 0.40178,-0.0258 0.53873,0.0652 c 0.29624,0.0359 0.59696,0.0964 0.66856,0.13436 0.0716,0.038 0.52715,0.13348 1.01221,0.21188 l 0.88238,0.14275 0.16536,0.084 c 0.091,0.0463 0.289,0.20071 0.4399,0.34365 l 0.27388,0.26032 0.14599,0.38563 0.14534,0.38564 -6.5e-4,0.23254 -0.001,0.23254 -0.47348,0.50191 -0.47349,0.50255 v 0.0962 c 0,0.0531 0.0631,0.27429 0.14017,0.49157 l 0.14018,0.39533 0.56521,0.92371 c 0.31068,0.50815 0.80107,1.26607 1.09037,1.68401 0.2893,0.41794 0.55012,0.8348 0.57942,0.9263 l 0.053,0.16601 -0.11692,0.17764 -0.11756,0.17764 h -0.14405 -0.14469 l -0.0769,-0.0265 -0.49093,-0.0607 c -0.49793,-0.0614 -1.17446,-0.0451 -1.29966,0.0317 -0.0377,0.0231 -0.19203,0.0651 -0.34236,0.093 l -0.27324,0.0504 -0.15955,0.0568 h -0.0917 c -0.0503,0 -0.1508,0.0651 -0.2235,0.14469 -0.0727,0.0796 -0.15644,0.1447 -0.18604,0.1447 -0.056,0 -0.17624,-0.356 -0.15374,-0.4554 0.007,-0.0313 0.0244,-0.15812 0.0381,-0.28228 l 0.0245,-0.22609 -0.13242,-0.11756 0.0769,-0.14147 c 0.0422,-0.0781 0.17481,-0.21134 0.29456,-0.29584 0.27849,-0.19651 1.06332,-0.54826 1.37007,-0.61366 0.13009,-0.0278 0.25649,-0.0821 0.28099,-0.12144 l 0.0446,-0.0717 -0.28099,0.0471 c -0.38444,0.064 -1.17281,0.31564 -1.50185,0.4793 l -0.2713,0.13436 -0.28487,0.416 -0.28486,0.41599 -0.0691,0.32621 -0.0685,0.32556 0.0504,0.23771 0.0504,0.23836 0.13629,0.14986 c 0.075,0.0822 0.26824,0.21727 0.42892,0.30037 l 0.29197,0.15115 0.73833,-0.0168 0.82101,0.22931 0.96053,0.0562 v -0.21252 l 0.4638,-0.15309 0.46444,-0.15309 0.33461,-0.20994 0.33395,-0.20993 0.1279,-0.19314 c 0.07,-0.10592 0.16612,-0.34389 0.21382,-0.52904 l 0.0872,-0.33654 -0.0891,-0.28939 -0.0885,-0.28939 -0.69246,-1.04968 c -0.3808,-0.57715 -0.84576,-1.31613 -1.03353,-1.64266 l -0.34171,-0.59428 v -0.14276 -0.14275 l 0.18022,-0.14017 0.18022,-0.14018 0.38564,-0.0504 c 0.41136,-0.0537 3.64585,-0.74678 4.62181,-0.99025 0.91841,-0.22913 2.32799,-0.66966 3.31439,-1.03547 1.01804,-0.37754 2.09974,-0.90825 2.88355,-1.41528 l 0.52774,-0.34107 0.2319,-0.29068 c 0.12762,-0.15967 0.26647,-0.38014 0.30877,-0.49028 l 0.0769,-0.20025 -0.0478,-0.2629 c -0.10923,-0.59709 -0.48745,-1.07668 -1.25057,-1.58582 -1.55129,-1.035 -3.24383,-1.5997 -7.39555,-2.4682 -0.88846,-0.18586 -3.031,-0.52705 -4.42996,-0.70538 -0.19467,-0.0248 -0.41967,-0.0546 -0.49997,-0.0659 -0.0803,-0.0113 -0.21916,-0.0235 -0.30876,-0.0265 l -0.16343,-0.006 -0.0491,-0.19896 c -0.10309,-0.41392 -2.63095,-5.87049 -3.43649,-7.41815 l -0.32879,-0.63239 -0.2306,-0.19314 c -0.30149,-0.2526 -1.14317,-0.64381 -1.6769,-0.77967 -0.48975,-0.12466 -1.32424,-0.24346 -2.05866,-0.29326 z m 0.54648,1.02836 0.55616,0.0517 0.55617,0.0517 0.62206,0.16924 0.62205,0.16989 0.18474,0.1673 0.1841,0.1673 0.23642,0.50643 c 0.12994,0.27863 0.45635,0.99522 0.72541,1.59228 0.26907,0.59707 0.83486,1.84098 1.25767,2.76404 0.42282,0.92307 0.75705,1.7065 0.74285,1.7415 l -0.0258,0.064 -0.58394,-0.0891 c -0.32135,-0.0489 -0.88001,-0.14403 -1.24153,-0.21123 -0.90047,-0.16731 -0.99936,-0.1741 -3.03082,-0.208 l -1.78929,-0.0297 -0.31071,0.0556 -0.31006,-0.0704 h -0.17053 c -0.0937,0 -0.18952,0.0185 -0.21252,0.0413 -0.0395,0.0391 -0.49177,0.0687 -2.10065,0.13759 -1.37016,0.0587 -2.45155,0.11487 -2.72076,0.14147 l -0.27389,0.0271 -0.0433,-0.0698 c -0.0241,-0.0384 -0.0355,-0.10358 -0.007,-0.10658 l 3.77561,-0.41858 c 0.18028,-0.02 0.42414,-0.0309 0.54131,-0.0349 l 0.21317,-0.007 -0.0401,-0.0401 c -0.0498,-0.0493 -0.39614,-0.0796 -1.66399,-0.14598 -1.13164,-0.0591 -2.52192,-0.0555 -3.45844,0.008 l -0.6466,0.0439 -0.13436,0.01 -0.042,-0.0413 -0.042,-0.042 0.0459,-0.0736 0.0465,-0.0743 0.19831,-6.5e-4 c 0.47025,-6.2e-4 1.23012,-0.0984 1.3959,-0.11175 l 1.76023,-0.14146 c 0.26083,-0.0209 0.47478,-0.0369 0.47478,-0.0439 0,-0.0137 0.59457,-0.0527 1.1427,-0.0749 0.18674,-0.008 0.38395,-0.0413 0.43795,-0.0743 l 0.0982,-0.0601 -0.073,-0.0672 -0.0723,-0.0672 -1.02255,-0.053 c -0.56235,-0.0291 -1.07151,-0.0511 -1.13171,-0.0491 -0.0603,0.002 -0.43985,0.012 -0.84362,0.022 l -0.73445,0.0174 -0.24546,0.0284 h -0.18346 -0.18409 l -0.55682,-0.007 c -0.23602,-0.0225 -0.52804,-0.0473 -0.64854,-0.0543 l -0.21897,-0.0136 0.4386,-0.0485 0.43796,-0.0478 0.14598,-0.0136 0.73058,-0.0504 c 1.26577,-0.0879 1.36451,-0.0975 1.40431,-0.13694 l 0.37013,-0.0898 0.46379,-0.0174 c 0.25512,-0.01 0.77596,-0.0247 1.15756,-0.0317 l 0.69375,-0.0136 0.30425,-0.0426 0.22414,0.0633 0.0866,-0.053 0.0859,-0.0523 -0.0949,-0.0775 c -0.12848,-0.1044 -0.48124,-0.0646 -0.48124,-0.0646 l -0.21898,-0.0381 -0.16859,0.0142 -0.1602,0.003 c -0.0884,0.001 -0.31692,-0.0194 -0.50772,-0.0465 l -0.34688,-0.0491 -0.21833,-0.008 -1.71695,0.0136 -1.7163,0.0136 v -0.10852 -0.10852 l 0.0911,0.005 0.53097,-0.082 0.36432,-0.004 c 0.20045,-0.002 0.49501,-0.0327 0.65435,-0.0665 l 0.29004,-0.0614 0.27517,-0.0181 0.2403,-0.0504 0.33202,-0.02 0.33138,-0.0194 0.17699,0.0265 0.53679,-0.0549 0.34171,0.0381 0.26871,0.0181 0.19314,-0.0161 c 0.20752,-0.017 0.22389,-0.0407 0.13049,-0.18669 l -0.0601,-0.0943 -0.13952,0.003 c -0.0767,0.001 -0.1885,0.004 -0.2487,0.006 -0.0602,0.002 -0.3235,-0.0104 -0.58459,-0.0278 -0.26109,-0.0174 -1.12386,-0.0354 -1.91719,-0.0394 l -1.44242,-0.007 v -0.10852 c 0,-0.0597 0.0247,-0.11004 0.0549,-0.11304 0.0301,-0.003 0.33423,-0.0148 0.67567,-0.0271 0.34144,-0.0123 0.96573,-0.0465 1.38751,-0.0762 0,0 0.6203,-0.0553 0.76675,-0.0543 0.14643,0.002 0.0732,0.009 0.10981,0.01 0.10441,0.002 0.31264,-0.0181 0.31264,-0.0181 l 0.57232,0.0265 0.65241,-0.0924 0.35076,0.0194 0.11433,-0.0439 0.11434,-0.0433 -0.04,-0.0646 -0.72024,-0.13759 h -0.17958 l -0.26419,0.0155 -1.89911,-0.0575 c -1.04438,-0.0316 -2.13699,-0.06 -2.42815,-0.062 l -0.52904,-0.004 0.0239,-0.0724 0.0245,-0.0723 0.35915,-0.0136 c 0.56214,-0.0204 1.98308,-0.0916 2.58641,-0.12984 0.8866,-0.0562 3.54511,-0.13837 4.4713,-0.13823 0.47098,10e-5 0.84194,-0.0141 0.82424,-0.0317 -0.0178,-0.0175 -0.004,-0.0842 0.031,-0.14857 l 0.0633,-0.11757 -1.03353,-0.011 -6.44793,-0.0627 c 0,0 -0.41085,-0.0523 -0.5594,-0.0523 h -0.27 v -0.0652 -0.0646 l 0.23706,-0.0142 c 0.13055,-0.008 0.35292,-0.0225 0.49351,-0.0329 0.14059,-0.0104 1.29074,-0.0369 2.55605,-0.0581 1.26531,-0.0212 2.60993,-0.0553 2.98819,-0.0762 l 0.68794,-0.0381 0.19443,-0.0207 0.34688,-0.008 0.52968,0.0349 0.16408,-0.0375 c 0.0904,-0.0204 0.33769,-0.0487 0.5497,-0.0633 0.21199,-0.0146 0.40655,-0.0476 0.43215,-0.073 l 0.0471,-0.0465 -0.0446,-0.0439 c -0.0245,-0.0242 -0.21893,-0.0492 -0.43214,-0.0562 -0.21322,-0.007 -0.42673,-0.0368 -0.47413,-0.0659 l -0.12597,0.011 -0.57102,0.0439 c -0.29208,-0.0114 -0.99116,-0.0441 -1.55352,-0.0724 -0.56235,-0.0283 -2.19912,-0.0526 -3.63673,-0.0536 l -2.61354,-0.002 -0.0349,-0.0562 -0.0349,-0.0556 0.12919,-0.04 c 0.0709,-0.0226 0.24235,-0.0265 0.38111,-0.009 l 0.3288,-0.0271 c 0.042,-0.0325 0.12583,-0.0607 0.18603,-0.0627 0.0602,-0.002 0.27022,-0.0249 0.46703,-0.051 l 0.35786,-0.0478 0.24804,10e-4 0.61366,6.5e-4 c 0.3376,10e-4 0.71213,6e-5 0.83264,-0.002 0.12051,-10e-4 0.29768,-0.003 0.39338,-0.003 h 0.17377 l 0.16342,0.0142 0.98573,-0.0439 0.98637,-0.0439 0.18216,-0.0142 0.6395,-0.0142 c 0.35147,-0.008 0.68782,-0.0312 0.74802,-0.0517 0.16565,-0.0564 0.31782,-0.0603 1.07551,-0.0284 l 0.5271,0.022 0.0355,-0.0911 0.0349,-0.0917 -0.26355,-0.0491 -0.2642,-0.0491 -0.37853,0.0284 -1.16853,-0.0465 c -2.34769,-0.0942 -2.65689,-0.10118 -4.19935,-0.0982 l -1.57032,0.003 -0.54777,0.062 c -0.30125,0.0341 -0.77755,0.0817 -1.05872,0.10594 -0.28119,0.0242 -0.59334,0.0634 -0.69376,0.0866 -0.10042,0.0232 -0.26454,0.054 -0.36496,0.0685 -0.10042,0.0145 -0.51128,0.12219 -0.91274,0.239 -0.40146,0.11682 -0.74453,0.19772 -0.76223,0.18023 -0.0718,-0.0711 0.14673,-0.17167 0.99025,-0.4567 l 0.88561,-0.29907 0.45281,-0.0381 c 0.24906,-0.0209 0.60615,-0.0696 0.79388,-0.10852 0.18775,-0.0389 0.4816,-0.0821 0.65306,-0.0962 l 0.312,-0.0258 0.18474,-0.0123 0.3191,-0.04 3.45134,-0.0381 h 0.36691 l 0.20154,-0.0362 0.42051,-0.0258 0.42117,-0.0258 0.10916,0.006 0.31071,-0.003 0.31005,-0.003 0.2558,0.0155 h 0.2881 0.28745 z m -15.33434,2.69105 -0.003,0.0556 c -8.9e-4,0.0306 -0.23696,0.13318 -0.52517,0.22738 -0.72387,0.2365 -1.38731,0.55467 -2.00375,0.96182 -0.28718,0.18976 -0.53871,0.38754 -0.5594,0.43861 l -0.0381,0.0924 -0.006,-0.14857 -0.006,-0.14857 0.23706,-0.21962 c 0.13055,-0.12096 0.35869,-0.29188 0.50643,-0.37918 0.26254,-0.1552 1.79747,-0.73605 2.19625,-0.83134 z"
                     sodipodi:nodetypes="csscsccscccccscccssccccccccccscccccccccccccsccsssssssssscccscssscccccccccccccccccccccccccccccccscccssscccscccccccccscccccccscccscccccccccsssccccsccssccccssssccccccsssssccsscccccccccccscccsccccccccscccssscccccssccccccccccccccccccccccccccccsccccccsscccsccssssccccccscccccccccssccccccccssscccccccccccccccccccssccccccccccccccccccccsccccccccccccccccccccccccccccccccccccsccscscccccccccccccscccccsscscccsccccssccccccscccscccsccccccccccccccccccccsccccccccccsssssccccsccccccccccccccccccccccccsccc" /></g></g></g></g></g></g></g></g></svg>
